<?xml version="1.0" encoding="utf-8"?>
<!-- Generator: Adobe Illustrator 25.2.3, SVG Export Plug-In . SVG Version: 6.00 Build 0)  -->
<svg version="1.1" id="Layer_1" xmlns="http://www.w3.org/2000/svg" xmlns:xlink="http://www.w3.org/1999/xlink" x="0px" y="0px"
	 viewBox="0 0 16.6 13.2" style="enable-background:new 0 0 16.6 13.2;" xml:space="preserve">
<style type="text/css">
	.st0{fill:#FFFFFF;}
</style>
<g id="Group_531" transform="translate(0 406.563)">
	<path id="Path_231" class="st0" d="M14.9-399.4l-1.1-0.3v-0.4c0.6-0.4,1-1.1,1-1.8v-1.2c0-1.2-1-2.1-2.1-2.1
		c-0.6,0-1.2,0.3-1.6,0.7c-0.4-1.2-1.5-2.1-2.7-2.1l0,0c-1.3,0-2.4,0.8-2.7,2.1c-0.4-0.5-1-0.7-1.6-0.7c-1.2,0-2.1,1-2.1,2.1v1.2
		c0,0.7,0.4,1.4,1,1.8v0.4l-1.1,0.3c-1,0.2-1.7,1.2-1.7,2.2v2.2c0,0.2,0.1,0.3,0.3,0.3c0,0,0,0,0,0h2.6v1c0,0.2,0.1,0.3,0.3,0.3
		c0,0,0,0,0,0h7.2c0.2,0,0.3-0.1,0.3-0.3l0,0c0-0.2-0.1-0.3-0.3-0.3c0,0,0,0,0,0H5.3v-1.4c0-0.2-0.1-0.3-0.3-0.3c0,0,0,0,0,0
		c-0.2,0-0.3,0.1-0.3,0.3l0,0v1.4H3.6v-1.5c0-1.1,0.8-2,1.8-2.3l1.6-0.4l1,2.3c0.1,0.1,0.2,0.2,0.3,0.2l0,0c0.1,0,0.2-0.1,0.3-0.2
		l1-2.3l1.6,0.4c1.1,0.3,1.8,1.2,1.8,2.3v0.4c0,0,0,0.1,0,0.1c0,0,0,0.1,0,0.1v0.8h-1.1v-1.4c0-0.2-0.1-0.3-0.3-0.3c0,0,0,0,0,0
		c-0.2,0-0.3,0.1-0.3,0.3l0,0v1.4H9.7c-0.2,0-0.3,0.1-0.3,0.3l0,0c0,0.2,0.1,0.3,0.3,0.3c0,0,0,0,0,0h3.7c0.2,0,0.3-0.1,0.3-0.3l0,0
		v-1h2.6c0.2,0,0.3-0.1,0.3-0.3l0,0v-2.2C16.6-398.2,15.9-399.1,14.9-399.4z M12.6-404.6c0.8,0,1.5,0.7,1.5,1.5v0.1h-0.9
		c-0.7,0-1.4-0.2-2-0.5C11.4-404.1,12-404.6,12.6-404.6L12.6-404.6z M11.2-401.9c0,0,0-0.9,0-0.9c0.6,0.3,1.3,0.5,2.1,0.5h0.9v0.4
		c0,0.8-0.7,1.5-1.5,1.5C11.8-400.4,11.2-401.1,11.2-401.9L11.2-401.9z M6.1-403.7c0-1.2,1-2.2,2.2-2.2c1.2,0,2.2,1,2.2,2.2v0
		l-1.2-0.7c-0.1-0.1-0.3-0.1-0.4,0.1c-0.5,0.6-1.2,0.9-1.9,0.9H6.1V-403.7z M2.5-403L2.5-403c0-0.9,0.7-1.6,1.5-1.6
		c0.7,0,1.2,0.4,1.4,1.1c-0.6,0.3-1.3,0.5-2,0.5L2.5-403L2.5-403z M2.5-401.9v-0.4h0.9c0.7,0,1.4-0.2,2.1-0.5v0.9
		c0,0.8-0.7,1.5-1.5,1.5C3.1-400.4,2.5-401.1,2.5-401.9L2.5-401.9z M2.9-395.5v0.2h-1v-1.4c0-0.2-0.1-0.3-0.3-0.3c0,0,0,0,0,0
		c-0.2,0-0.3,0.1-0.3,0.3l0,0v1.4H0.6v-1.9c0-0.7,0.5-1.4,1.2-1.6l1-0.2l0.7,1.6C3.2-396.9,2.9-396.2,2.9-395.5L2.9-395.5z M4-398.2
		l-0.5-1.2c0,0,0,0,0,0v-0.4c0.2,0,0.3,0.1,0.5,0.1c0.2,0,0.3,0,0.5-0.1v0.4c0,0,0,0,0,0s0,0,0,0L4-398.2z M5.2-398.4
		c-0.2,0-0.4,0.1-0.5,0.2L5-399l1,0.2c0.1,0,0.2,0,0.2,0.1L5.2-398.4z M6.8-399.1c-0.2-0.1-0.4-0.2-0.7-0.3l-1.1-0.3v-0.4
		c0.3-0.2,0.5-0.4,0.7-0.7c0.2,0.5,0.6,0.9,1.1,1.2L6.8-399.1z M9.1-398.6l-0.8,1.8l-0.8-1.8v-0.7c0.3,0.1,0.5,0.1,0.8,0.1
		c0.3,0,0.5,0,0.8-0.1L9.1-398.6z M8.3-399.8c-1.2,0-2.2-1-2.2-2.2v-0.8H7c0.8,0,1.6-0.3,2.2-0.9l1.3,0.8v1
		C10.5-400.8,9.5-399.8,8.3-399.8L8.3-399.8z M9.8-399.6L9.8-399.6c0.5-0.3,0.8-0.7,1.1-1.2c0.2,0.3,0.4,0.5,0.7,0.7v0.4l-1.1,0.3
		c-0.2,0.1-0.5,0.2-0.7,0.3V-399.6z M11.4-398.4l-1-0.2c0.1,0,0.2-0.1,0.2-0.1l1-0.2l0.3,0.8C11.7-398.3,11.5-398.4,11.4-398.4
		L11.4-398.4z M12.2-399.3C12.2-399.4,12.2-399.4,12.2-399.3C12.2-399.4,12.2-399.4,12.2-399.3v-0.4c0.2,0,0.3,0.1,0.5,0.1
		c0.2,0,0.3,0,0.5-0.1v0.4c0,0,0,0,0,0l-0.5,1.2L12.2-399.3z M16-395.3h-0.7v-1.4c0-0.2-0.1-0.3-0.3-0.3c0,0,0,0,0,0
		c-0.2,0-0.3,0.1-0.3,0.3l0,0v1.4h-1v-0.2c0-0.7-0.2-1.4-0.7-1.9l0.7-1.6l1,0.2c0.7,0.2,1.2,0.8,1.2,1.6L16-395.3z"/>
	<path id="Path_232" class="st0" d="M8.9-401.3c-0.1-0.1-0.3-0.1-0.5,0c-0.1,0.1-0.3,0.1-0.3,0c0,0,0,0,0,0c-0.1-0.1-0.3-0.1-0.5,0
		c-0.1,0.1-0.1,0.3,0,0.5c0.2,0.2,0.4,0.3,0.6,0.3c0.2,0,0.5-0.1,0.6-0.3C9.1-401,9.1-401.1,8.9-401.3C9-401.3,9-401.3,8.9-401.3z
		 M7.4-402.4c-0.1-0.1-0.1-0.1-0.2-0.1c-0.1,0-0.2,0-0.2,0.1c-0.1,0.1-0.1,0.1-0.1,0.2c0,0.1,0,0.2,0.1,0.2c0.1,0.1,0.1,0.1,0.2,0.1
		c0.1,0,0.2,0,0.2-0.1c0.1-0.1,0.1-0.1,0.1-0.2C7.5-402.2,7.5-402.3,7.4-402.4L7.4-402.4z M9.6-402.4c-0.1-0.1-0.1-0.1-0.2-0.1
		c-0.1,0-0.2,0-0.2,0.1c-0.1,0.1-0.1,0.1-0.1,0.2c0,0.1,0,0.2,0.1,0.2c0.1,0.1,0.1,0.1,0.2,0.1c0.1,0,0.2,0,0.2-0.1
		c0.1-0.1,0.1-0.1,0.1-0.2C9.7-402.2,9.7-402.3,9.6-402.4L9.6-402.4z"/>
</g>
</svg>
