<?xml version="1.0" encoding="utf-8"?>
<!-- Generator: Adobe Illustrator 25.2.0, SVG Export Plug-In . SVG Version: 6.00 Build 0)  -->
<svg version="1.1" id="Layer_1" xmlns="http://www.w3.org/2000/svg" xmlns:xlink="http://www.w3.org/1999/xlink" x="0px" y="0px"
	 viewBox="0 0 92.6 77.9" style="enable-background:new 0 0 92.6 77.9;" xml:space="preserve">
<style type="text/css">
	.st0{opacity:0.1;}
	.st1{fill:#FFFFFF;}
	.st2{fill:#F7745C;}
	.st3{fill:#3DC960;}
	.st4{fill:#FFFFFF;stroke:#FF8878;stroke-width:4;stroke-miterlimit:10;}
	.st5{fill:#FFFFFF;stroke:#47E268;stroke-width:4;stroke-miterlimit:10;}
	.st6{opacity:0.2;}
	.st7{fill:#47E268;}
	.st8{fill:#FF8878;}
</style>
<g class="st6">
	<path class="st8" d="M6.8,40C3.2,40,0.1,43,0,46.6c-0.1,3.7,3,6.8,6.7,6.8l12.1,0c0,0,0,0,0,0l21.5,0c0,0,0,0,0,0l-10.6,0l0.2,0
		c1.4,0,2.1,1.5,1.3,2.6l-7.6,10c-2.5,3.2-1.8,7.9,1.4,10.3c1.5,1.1,3.3,1.6,5.1,1.5c0,0,0,0,0,0c2-0.2,4-1.2,5.3-2.9l17-22.4
		c1.6-2.1,3.9-3.7,6.4-4.3v1.9c0,1.6,1.3,3,3,3h8.5c1.6,0,3-1.3,3-3V50h14.9c2.4,0,4.3-1.9,4.3-4.3V9.6c0-2.4-1.9-4.3-4.3-4.3H73.1
		c-0.5-1-1.5-1.7-2.7-1.7h-8.5c-1.6,0-3,1.3-3,3v0.7h-2.1c-1.5,0-2.9-0.3-4.3-0.8l-9.6-3.8C37.9,1,32.5,0.1,27.2,0.1l-1.9,0
		c0,0,0,0,0,0L15.3,0c-3.8,0-6.8,3.2-6.7,7c0.1,2.6,1.8,4.8,4.2,5.8c0.1,0,0.2,0.1,0.2,0.3c0,0.2-0.1,0.3-0.3,0.3h-1.5
		c-3.4,0-6.3,2.6-6.4,6c-0.2,4,2.6,7.2,6.4,7.3v0l-0.9,0c-3.6,0-6.7,2.8-6.8,6.4c-0.1,3.5,2.5,6.5,5.9,6.9v0H6.8z"/>
</g>
</svg>
