<?xml version="1.0" encoding="utf-8"?>
<!-- Generator: Adobe Illustrator 25.2.3, SVG Export Plug-In . SVG Version: 6.00 Build 0)  -->
<svg version="1.1" id="Layer_1" xmlns="http://www.w3.org/2000/svg" xmlns:xlink="http://www.w3.org/1999/xlink" x="0px" y="0px"
	 viewBox="0 0 15.2 21" style="enable-background:new 0 0 15.2 21;" xml:space="preserve">
<style type="text/css">
	.st0{fill:#FFFFFF;}
</style>
<g id="_002-maps-and-flags" transform="translate(-70.573)">
	<g id="Group_27" transform="translate(70.573)">
		<g id="Group_26" transform="translate(0)">
			<path id="Path_45" class="st0" d="M7.6,0C3.4,0,0,3.4,0,7.6c0,5.2,6.8,12.9,7.1,13.2c0.3,0.3,0.7,0.3,1,0.1c0,0,0,0,0.1-0.1
				c0.3-0.3,7.1-8,7.1-13.2C15.2,3.4,11.8,0,7.6,0z M7.6,19.3c-2.3-2.7-6.2-8.1-6.2-11.7c0-3.4,2.8-6.2,6.2-6.2s6.2,2.8,6.2,6.2
				C13.9,11.2,9.9,16.6,7.6,19.3z"/>
		</g>
	</g>
	<g id="Group_29" transform="translate(74.355 3.782)">
		<g id="Group_28" transform="translate(0)">
			<path id="Path_46" class="st0" d="M3.8,0C1.7,0,0,1.7,0,3.8c0,2.1,1.7,3.8,3.8,3.8c2.1,0,3.8-1.7,3.8-3.8l0,0
				C7.7,1.7,5.9,0,3.8,0z M3.8,6.3c-1.4,0-2.5-1.1-2.5-2.5c0-1.4,1.1-2.5,2.5-2.5c1.4,0,2.5,1.1,2.5,2.5C6.3,5.2,5.2,6.3,3.8,6.3z"
				/>
		</g>
	</g>
</g>
</svg>
