<?xml version="1.0" encoding="utf-8"?>
<!-- Generator: Adobe Illustrator 25.2.0, SVG Export Plug-In . SVG Version: 6.00 Build 0)  -->
<svg version="1.1" id="Layer_1" xmlns="http://www.w3.org/2000/svg" xmlns:xlink="http://www.w3.org/1999/xlink" x="0px" y="0px"
	 viewBox="0 0 2500 2500" style="enable-background:new 0 0 2500 2500;" xml:space="preserve">
<style type="text/css">
	.st0{fill:#FFFFFF;}
</style>
<g transform="translate(-373.642 -318.344)">
	<path class="st0" d="M775.9,571c196.5-175.8,426.8-299.5,779.2-235.6v1132.5c-15.1,54.4-60.4,66.4-99.7,36.2L775.9,571z
		 M2182,983.2c157.8,98.6,334.5,295.6,384.5,585.8l-758.7,122.8c-43.8-16.6-76.7-44.1-72.5-108.7L2182,983.2L2182,983.2z
		 M1830.5,1954.6c-48.9,11-74.8,40.4-63.4,99.7l383.7,649.6c170.6-78.3,341-261.1,418-531.8L1830.5,1954.6z M1436.4,2045.2
		c50.8-6.6,98.2-7.6,113.2,45.3l22.7,724.8c-249.3,18.4-457.2-45.9-598-244.6L1436.4,2045.2L1436.4,2045.2z M1336.8,1710
		c36.3,43.6,56.6,89.4,9.1,145l-697.6,244.6c-82.2-227.1-74.7-440.3,0-643.3L1336.8,1710L1336.8,1710z"/>
</g>
</svg>
